<?xml version="1.0" encoding="UTF-8"?>
<!DOCTYPE svg PUBLIC "-//W3C//DTD SVG 1.1//EN" "http://www.w3.org/Graphics/SVG/1.1/DTD/svg11.dtd">
<svg xmlns="http://www.w3.org/2000/svg" version="1.1" width="501px" height="498px" style="shape-rendering:geometricPrecision; text-rendering:geometricPrecision; image-rendering:optimizeQuality; fill-rule:evenodd; clip-rule:evenodd" xmlns:xlink="http://www.w3.org/1999/xlink">
<g><path style="opacity:1" fill="#a86263" d="M 297.5,6.5 C 279.829,5.13329 262.162,3.79995 244.5,2.5C 224.643,4.42335 204.976,7.09002 185.5,10.5C 185.611,9.88258 185.944,9.38258 186.5,9C 222.522,-0.351786 258.856,-1.68512 295.5,5C 296.416,5.27842 297.082,5.77842 297.5,6.5 Z"/></g>
<g><path style="opacity:1" fill="#a43e42" d="M 308.5,10.5 C 310.5,10.5 312.5,10.5 314.5,10.5C 320.637,12.5746 326.304,15.7413 331.5,20C 337.009,19.2448 342.009,20.5781 346.5,24C 350.826,25.3309 355.16,26.4976 359.5,27.5C 364.557,29.0733 369.224,31.4066 373.5,34.5C 373.511,36.0174 374.177,37.1841 375.5,38C 380.062,40.7796 384.728,43.2796 389.5,45.5C 428.172,71.4743 457.006,105.808 476,148.5C 479.343,156.363 482.176,164.363 484.5,172.5C 484.337,174.857 484.503,177.19 485,179.5C 487.818,187.545 490.318,195.545 492.5,203.5C 493.406,215.825 494.739,227.825 496.5,239.5C 495.43,261.273 493.43,282.606 490.5,303.5C 489.167,303.5 487.833,303.5 486.5,303.5C 486.988,306.711 486.321,309.544 484.5,312C 486.291,314.106 486.958,316.606 486.5,319.5C 464.514,389.649 420.514,440.815 354.5,473C 347.327,476.334 339.994,479.167 332.5,481.5C 327.685,482.704 322.852,483.704 318,484.5C 317.586,484.043 317.086,483.709 316.5,483.5C 306.612,489.37 296.445,490.037 286,485.5C 285.5,486 285,486.5 284.5,487C 280.148,487.752 275.815,488.585 271.5,489.5C 271.291,490.086 270.957,490.586 270.5,491C 257.489,492.724 244.489,492.724 231.5,491C 231,490.5 230.5,490 230,489.5C 227.539,490.218 225.039,490.885 222.5,491.5C 220.528,489.679 218.194,489.512 215.5,491C 211.833,491.667 208.167,491.667 204.5,491C 197.686,488.625 190.686,486.959 183.5,486C 181.913,485.138 180.246,484.471 178.5,484C 178.833,483.667 179.167,483.333 179.5,483C 175.49,482.499 171.49,481.999 167.5,481.5C 95.6377,454.971 45.971,405.971 18.5,334.5C 15.6418,324.668 13.4751,314.668 12,304.5C 11.6667,304.833 11.3333,305.167 11,305.5C 10.8921,301.371 9.72543,297.704 7.5,294.5C 5.13094,287.146 4.13094,279.479 4.5,271.5C 4.33344,258.163 4.5001,244.829 5,231.5C 6.02956,229.412 6.8629,227.245 7.5,225C 6.57005,219.55 6.23672,214.05 6.5,208.5C 11.7069,176.758 22.5403,147.091 39,119.5C 43.2774,113.253 47.7774,107.253 52.5,101.5C 57.1344,96.6949 61.6344,91.6949 66,86.5C 67.1475,87.4581 68.1475,87.1247 69,85.5C 68.1894,83.2088 69.0228,81.3754 71.5,80C 74.47,78.8468 77.1367,77.1801 79.5,75C 78.5494,74.2825 78.3828,73.4491 79,72.5C 83.4764,67.9343 88.1431,63.601 93,59.5C 93.4643,58.9056 93.631,58.2389 93.5,57.5C 101.847,50.9968 110.514,44.9968 119.5,39.5C 123.105,38.0371 126.771,36.5371 130.5,35C 132.59,33.4115 134.257,31.5782 135.5,29.5C 142.108,27.8291 148.441,25.3291 154.5,22C 160.899,20.2242 167.232,18.3909 173.5,16.5C 176.545,16.4921 179.545,16.1587 182.5,15.5C 182.5,14.5 182.5,13.5 182.5,12.5C 192.564,14.5939 202.231,13.5939 211.5,9.5C 218.818,8.83094 226.152,8.66428 233.5,9C 237.859,6.70227 242.526,5.53561 247.5,5.5C 255.168,5.97787 262.835,6.47787 270.5,7C 271.09,8.29892 272.09,9.13225 273.5,9.5C 278.037,7.44642 282.704,7.11309 287.5,8.5C 287.167,9.16667 286.833,9.83333 286.5,10.5C 289.5,11.5 292.5,12.5 295.5,13.5C 299.711,12.0957 304.045,11.0957 308.5,10.5 Z"/></g>
<g><path style="opacity:1" fill="#9f4043" d="M 297.5,6.5 C 299.95,6.29803 302.283,6.63137 304.5,7.5C 306.076,8.14294 307.41,9.14294 308.5,10.5C 304.045,11.0957 299.711,12.0957 295.5,13.5C 292.5,12.5 289.5,11.5 286.5,10.5C 286.833,9.83333 287.167,9.16667 287.5,8.5C 282.704,7.11309 278.037,7.44642 273.5,9.5C 272.09,9.13225 271.09,8.29892 270.5,7C 262.835,6.47787 255.168,5.97787 247.5,5.5C 242.526,5.53561 237.859,6.70227 233.5,9C 226.152,8.66428 218.818,8.83094 211.5,9.5C 202.231,13.5939 192.564,14.5939 182.5,12.5C 182.5,13.5 182.5,14.5 182.5,15.5C 179.545,16.1587 176.545,16.4921 173.5,16.5C 174.11,15.609 174.443,14.609 174.5,13.5C 177.799,11.5165 181.466,10.5165 185.5,10.5C 204.976,7.09002 224.643,4.42335 244.5,2.5C 262.162,3.79995 279.829,5.13329 297.5,6.5 Z"/></g>
<g><path style="opacity:0.937" fill="#b37778" d="M 304.5,7.5 C 307.522,7.80404 310.522,8.30404 313.5,9C 314.056,9.38258 314.389,9.88258 314.5,10.5C 312.5,10.5 310.5,10.5 308.5,10.5C 307.41,9.14294 306.076,8.14294 304.5,7.5 Z"/></g>
<g><path style="opacity:1" fill="#a25b5d" d="M 174.5,13.5 C 174.443,14.609 174.11,15.609 173.5,16.5C 167.232,18.3909 160.899,20.2242 154.5,22C 148.441,25.3291 142.108,27.8291 135.5,29.5C 147.662,22.3931 160.662,17.0597 174.5,13.5 Z"/></g>
<g><path style="opacity:1" fill="#9c5253" d="M 314.5,10.5 C 322.775,12.0378 330.775,14.3711 338.5,17.5C 339.287,19.1042 340.62,19.7709 342.5,19.5C 348.618,21.3945 354.285,24.0612 359.5,27.5C 355.16,26.4976 350.826,25.3309 346.5,24C 342.009,20.5781 337.009,19.2448 331.5,20C 326.304,15.7413 320.637,12.5746 314.5,10.5 Z"/></g>
<g><path style="opacity:0.141" fill="#e1bbb8" d="M 338.5,17.5 C 340.153,17.6596 341.486,18.3263 342.5,19.5C 340.62,19.7709 339.287,19.1042 338.5,17.5 Z"/></g>
<g><path style="opacity:1" fill="#9d5e5e" d="M 135.5,29.5 C 134.257,31.5782 132.59,33.4115 130.5,35C 126.771,36.5371 123.105,38.0371 119.5,39.5C 124.457,35.6184 129.791,32.2851 135.5,29.5 Z"/></g>
<g><path style="opacity:0.902" fill="#934d51" d="M 373.5,34.5 C 379.189,37.6757 384.523,41.3423 389.5,45.5C 384.728,43.2796 380.062,40.7796 375.5,38C 374.177,37.1841 373.511,36.0174 373.5,34.5 Z"/></g>
<g><path style="opacity:1" fill="#99434a" d="M 93.5,57.5 C 93.631,58.2389 93.4643,58.9056 93,59.5C 88.1431,63.601 83.4764,67.9343 79,72.5C 78.3828,73.4491 78.5494,74.2825 79.5,75C 77.1367,77.1801 74.47,78.8468 71.5,80C 69.0228,81.3754 68.1894,83.2088 69,85.5C 68.1475,87.1247 67.1475,87.4581 66,86.5C 61.6344,91.6949 57.1344,96.6949 52.5,101.5C 64.0265,84.9688 77.6931,70.3022 93.5,57.5 Z"/></g>
<g><path style="opacity:1" fill="#9e454a" d="M 245.5,113.5 C 245.5,118.833 245.5,124.167 245.5,129.5C 248.5,129.5 251.5,129.5 254.5,129.5C 254.5,124.167 254.5,118.833 254.5,113.5C 255.812,115.743 256.478,118.41 256.5,121.5C 257.598,126.893 255.931,131.06 251.5,134C 254.167,134.333 256.833,134.667 259.5,135C 262.192,135.743 264.525,136.91 266.5,138.5C 257.662,135.533 248.662,134.866 239.5,136.5C 242.07,134.676 245.07,133.343 248.5,132.5C 247.68,130.889 246.346,130.222 244.5,130.5C 244.178,124.642 244.511,118.975 245.5,113.5 Z"/></g>
<g><path style="opacity:1" fill="#f9ecea" d="M 245.5,113.5 C 248.5,113.5 251.5,113.5 254.5,113.5C 254.5,118.833 254.5,124.167 254.5,129.5C 251.5,129.5 248.5,129.5 245.5,129.5C 245.5,124.167 245.5,118.833 245.5,113.5 Z"/></g>
<g><path style="opacity:1" fill="#fcf9f7" d="M 266.5,138.5 C 272.766,142.931 278.266,148.264 283,154.5C 284.759,158.009 285.926,161.675 286.5,165.5C 262.167,165.5 237.833,165.5 213.5,165.5C 216.495,150.834 225.162,141.167 239.5,136.5C 248.662,134.866 257.662,135.533 266.5,138.5 Z"/></g>
<g><path style="opacity:1" fill="#9c4046" d="M 314.5,189.5 C 314.5,183.167 314.5,176.833 314.5,170.5C 271.5,170.5 228.5,170.5 185.5,170.5C 205.826,169.425 226.326,168.758 247,168.5C 266.522,169.476 286.022,169.81 305.5,169.5C 308.642,167.881 311.975,167.215 315.5,167.5C 315.825,175.019 315.492,182.352 314.5,189.5 Z"/></g>
<g><path style="opacity:1" fill="#c7858a" d="M 185.5,171.5 C 185.5,171.167 185.5,170.833 185.5,170.5C 228.5,170.5 271.5,170.5 314.5,170.5C 314.5,176.833 314.5,183.167 314.5,189.5C 314.167,189.5 313.833,189.5 313.5,189.5C 313.5,183.5 313.5,177.5 313.5,171.5C 270.833,171.5 228.167,171.5 185.5,171.5 Z"/></g>
<g><path style="opacity:1" fill="#fefcfa" d="M 185.5,171.5 C 228.167,171.5 270.833,171.5 313.5,171.5C 313.5,177.5 313.5,183.5 313.5,189.5C 270.833,189.5 228.167,189.5 185.5,189.5C 185.5,183.5 185.5,177.5 185.5,171.5 Z"/></g>
<g><path style="opacity:0.808" fill="#904247" d="M 484.5,172.5 C 488.552,182.37 491.218,192.703 492.5,203.5C 490.318,195.545 487.818,187.545 485,179.5C 484.503,177.19 484.337,174.857 484.5,172.5 Z"/></g>
<g><path style="opacity:1" fill="#fefdfb" d="M 228.5,195.5 C 228.667,208.504 228.5,221.504 228,234.5C 210.356,249.35 207.023,267.016 218,287.5C 220.647,291.314 223.813,294.647 227.5,297.5C 228.5,318.823 228.833,340.156 228.5,361.5C 219.167,361.5 209.833,361.5 200.5,361.5C 200.5,306.167 200.5,250.833 200.5,195.5C 209.833,195.5 219.167,195.5 228.5,195.5 Z"/></g>
<g><path style="opacity:1" fill="#fefdfb" d="M 235.5,195.5 C 245.167,195.5 254.833,195.5 264.5,195.5C 265.144,207.216 264.478,218.549 262.5,229.5C 253.87,226.982 245.204,226.982 236.5,229.5C 235.505,218.346 235.172,207.012 235.5,195.5 Z"/></g>
<g><path style="opacity:1" fill="#fefcfa" d="M 299.5,361.5 C 290.167,361.5 280.833,361.5 271.5,361.5C 271.5,340.5 271.5,319.5 271.5,298.5C 285.037,287.384 290.204,273.05 287,255.5C 286.626,253.509 285.793,251.842 284.5,250.5C 282.056,243.603 277.723,238.269 271.5,234.5C 270.501,221.517 270.168,208.517 270.5,195.5C 280.167,195.5 289.833,195.5 299.5,195.5C 299.5,250.833 299.5,306.167 299.5,361.5 Z"/></g>
<g><path style="opacity:1" fill="#f1bbbf" d="M 234.5,195.5 C 234.833,195.5 235.167,195.5 235.5,195.5C 235.172,207.012 235.505,218.346 236.5,229.5C 236.44,230.043 236.107,230.376 235.5,230.5C 234.501,218.852 234.168,207.186 234.5,195.5 Z"/></g>
<g><path style="opacity:1" fill="#c49292" d="M 264.5,195.5 C 265.495,206.988 265.828,218.655 265.5,230.5C 264.209,230.737 263.209,230.404 262.5,229.5C 264.478,218.549 265.144,207.216 264.5,195.5 Z"/></g>
<g><path style="opacity:0.994" fill="#924147" d="M 492.5,203.5 C 495.323,215.191 496.657,227.191 496.5,239.5C 494.739,227.825 493.406,215.825 492.5,203.5 Z"/></g>
<g><path style="opacity:1" fill="#fdfbf9" d="M 269.5,239.5 C 279.295,247.871 283.628,258.537 282.5,271.5C 275.604,292.959 260.937,301.625 238.5,297.5C 222.237,289.646 215.403,276.646 218,258.5C 224.253,240.118 237.086,231.951 256.5,234C 261.106,235.306 265.439,237.14 269.5,239.5 Z"/></g>
<g><path style="opacity:0.999" fill="#924549" d="M 6.5,208.5 C 6.23672,214.05 6.57005,219.55 7.5,225C 6.8629,227.245 6.02956,229.412 5,231.5C 4.5001,244.829 4.33344,258.163 4.5,271.5C 1.80237,250.414 2.46904,229.414 6.5,208.5 Z"/></g>
<g><path style="opacity:1" fill="#fefdfb" d="M 172.5,245.5 C 179.5,245.5 186.5,245.5 193.5,245.5C 193.5,259.167 193.5,272.833 193.5,286.5C 186.5,286.5 179.5,286.5 172.5,286.5C 172.5,272.833 172.5,259.167 172.5,245.5 Z"/></g>
<g><path style="opacity:1" fill="#f1d1cf" d="M 327.5,245.5 C 327.829,259.344 327.496,273.01 326.5,286.5C 326.5,273.167 326.5,259.833 326.5,246.5C 319.833,246.5 313.167,246.5 306.5,246.5C 306.5,259.833 306.5,273.167 306.5,286.5C 306.167,286.5 305.833,286.5 305.5,286.5C 305.5,272.833 305.5,259.167 305.5,245.5C 312.833,245.5 320.167,245.5 327.5,245.5 Z"/></g>
<g><path style="opacity:1" fill="#fefdfc" d="M 326.5,286.5 C 319.833,286.5 313.167,286.5 306.5,286.5C 306.5,273.167 306.5,259.833 306.5,246.5C 313.167,246.5 319.833,246.5 326.5,246.5C 326.5,259.833 326.5,273.167 326.5,286.5 Z"/></g>
<g><path style="opacity:1" fill="#9e494d" d="M 327.5,245.5 C 328.056,250.161 328.89,254.828 330,259.5C 331.566,260.061 332.899,259.394 334,257.5C 338.403,259.519 342.903,260.852 347.5,261.5C 342.5,261.5 337.5,261.5 332.5,261.5C 332.5,264.5 332.5,267.5 332.5,270.5C 338.026,270.821 343.36,270.488 348.5,269.5C 348.5,267.167 348.5,264.833 348.5,262.5C 348.5,262.167 348.5,261.833 348.5,261.5C 350.113,263.428 351.113,265.762 351.5,268.5C 351,269.5 350.5,270.5 350,271.5C 344.25,272.641 338.416,272.807 332.5,272C 331.059,268.276 329.893,264.443 329,260.5C 328.5,269.494 328.334,278.494 328.5,287.5C 320.648,287.825 312.982,287.492 305.5,286.5C 305.833,286.5 306.167,286.5 306.5,286.5C 313.167,286.5 319.833,286.5 326.5,286.5C 327.496,273.01 327.829,259.344 327.5,245.5 Z"/></g>
<g><path style="opacity:1" fill="#934045" d="M 496.5,239.5 C 498.143,266.751 494.809,293.418 486.5,319.5C 486.958,316.606 486.291,314.106 484.5,312C 486.321,309.544 486.988,306.711 486.5,303.5C 487.833,303.5 489.167,303.5 490.5,303.5C 493.43,282.606 495.43,261.273 496.5,239.5 Z"/></g>
<g><path style="opacity:1" fill="#fbf1ee" d="M 151.5,261.5 C 156.5,261.5 161.5,261.5 166.5,261.5C 166.5,264.5 166.5,267.5 166.5,270.5C 161.5,270.5 156.5,270.5 151.5,270.5C 151.5,267.5 151.5,264.5 151.5,261.5 Z"/></g>
<g><path style="opacity:1" fill="#fefcf9" d="M 348.5,262.5 C 348.5,264.833 348.5,267.167 348.5,269.5C 343.5,269.5 338.5,269.5 333.5,269.5C 333.5,267.167 333.5,264.833 333.5,262.5C 338.5,262.5 343.5,262.5 348.5,262.5 Z"/></g>
<g><path style="opacity:1" fill="#a06467" d="M 172.5,245.5 C 172.5,259.167 172.5,272.833 172.5,286.5C 179.5,286.5 186.5,286.5 193.5,286.5C 186.352,287.492 179.019,287.825 171.5,287.5C 171.171,273.323 171.504,259.323 172.5,245.5 Z"/></g>
<g><path style="opacity:1" fill="#f2cccc" d="M 347.5,261.5 C 347.833,261.5 348.167,261.5 348.5,261.5C 348.5,261.833 348.5,262.167 348.5,262.5C 343.5,262.5 338.5,262.5 333.5,262.5C 333.5,264.833 333.5,267.167 333.5,269.5C 338.5,269.5 343.5,269.5 348.5,269.5C 343.36,270.488 338.026,270.821 332.5,270.5C 332.5,267.5 332.5,264.5 332.5,261.5C 337.5,261.5 342.5,261.5 347.5,261.5 Z"/></g>
<g><path style="opacity:1" fill="#a0464b" d="M 246.5,251.5 C 261.506,252.856 266.339,260.522 261,274.5C 253.923,281.944 246.59,282.277 239,275.5C 233.153,264.866 235.653,256.866 246.5,251.5 Z"/></g>
<g><path style="opacity:1" fill="#fcf5f4" d="M 246.5,257.5 C 253.238,256.552 256.905,259.386 257.5,266C 257.124,272.377 253.791,275.044 247.5,274C 239.873,269.009 239.54,263.509 246.5,257.5 Z"/></g>
<g><path style="opacity:1" fill="#9f494c" d="M 284.5,250.5 C 285.793,251.842 286.626,253.509 287,255.5C 290.204,273.05 285.037,287.384 271.5,298.5C 271.167,298.5 270.833,298.5 270.5,298.5C 269.088,297.467 267.422,296.801 265.5,296.5C 258.517,299.855 251.183,301.021 243.5,300C 241.347,299.901 239.681,299.067 238.5,297.5C 260.937,301.625 275.604,292.959 282.5,271.5C 282.678,274.216 283.178,276.883 284,279.5C 286.516,272.106 287.182,264.439 286,256.5C 284.681,254.75 284.181,252.75 284.5,250.5 Z"/></g>
<g><path style="opacity:1" fill="#ca9a9a" d="M 228.5,195.5 C 219.167,195.5 209.833,195.5 200.5,195.5C 200.5,250.833 200.5,306.167 200.5,361.5C 199.501,306.002 199.168,250.336 199.5,194.5C 209.348,194.173 219.014,194.506 228.5,195.5 Z"/></g>
<g><path style="opacity:1" fill="#a04549" d="M 228.5,195.5 C 230.5,195.5 232.5,195.5 234.5,195.5C 234.168,207.186 234.501,218.852 235.5,230.5C 236.107,230.376 236.44,230.043 236.5,229.5C 245.204,226.982 253.87,226.982 262.5,229.5C 263.209,230.404 264.209,230.737 265.5,230.5C 262.645,233.167 263.312,234.834 267.5,235.5C 268.18,236.86 268.847,238.193 269.5,239.5C 265.439,237.14 261.106,235.306 256.5,234C 237.086,231.951 224.253,240.118 218,258.5C 215.403,276.646 222.237,289.646 238.5,297.5C 239.681,299.067 241.347,299.901 243.5,300C 251.183,301.021 258.517,299.855 265.5,296.5C 267.422,296.801 269.088,297.467 270.5,298.5C 270.5,298.833 270.5,299.167 270.5,299.5C 269.503,317.326 269.17,335.326 269.5,353.5C 268.5,353.5 267.5,353.5 266.5,353.5C 266.83,335.992 266.497,318.659 265.5,301.5C 263.901,301.232 262.568,301.566 261.5,302.5C 253.175,305.118 244.841,305.118 236.5,302.5C 236.44,301.957 236.107,301.624 235.5,301.5C 234.5,321.489 234.167,341.489 234.5,361.5C 232.964,359.975 231.964,357.975 231.5,355.5C 231.036,357.975 230.036,359.975 228.5,361.5C 228.833,340.156 228.5,318.823 227.5,297.5C 223.813,294.647 220.647,291.314 218,287.5C 207.023,267.016 210.356,249.35 228,234.5C 228.5,221.504 228.667,208.504 228.5,195.5 Z"/></g>
<g><path style="opacity:1" fill="#f0babe" d="M 236.5,302.5 C 235.503,321.993 235.17,341.66 235.5,361.5C 235.167,361.5 234.833,361.5 234.5,361.5C 234.167,341.489 234.5,321.489 235.5,301.5C 236.107,301.624 236.44,301.957 236.5,302.5 Z"/></g>
<g><path style="opacity:1" fill="#fefdfb" d="M 236.5,302.5 C 244.841,305.118 253.175,305.118 261.5,302.5C 262.5,302.5 263.5,302.5 264.5,302.5C 264.5,322.167 264.5,341.833 264.5,361.5C 254.833,361.5 245.167,361.5 235.5,361.5C 235.17,341.66 235.503,321.993 236.5,302.5 Z"/></g>
<g><path style="opacity:1" fill="#c0908f" d="M 261.5,302.5 C 262.568,301.566 263.901,301.232 265.5,301.5C 265.5,321.5 265.5,341.5 265.5,361.5C 265.167,361.5 264.833,361.5 264.5,361.5C 264.5,341.833 264.5,322.167 264.5,302.5C 263.5,302.5 262.5,302.5 261.5,302.5 Z"/></g>
<g><path style="opacity:1" fill="#964349" d="M 7.5,294.5 C 9.72543,297.704 10.8921,301.371 11,305.5C 11.3333,305.167 11.6667,304.833 12,304.5C 13.4751,314.668 15.6418,324.668 18.5,334.5C 13.076,321.747 9.40932,308.414 7.5,294.5 Z"/></g>
<g><path style="opacity:1" fill="#974348" d="M 270.5,299.5 C 270.5,320.5 270.5,341.5 270.5,362.5C 280.167,362.5 289.833,362.5 299.5,362.5C 294.678,363.166 289.678,363.499 284.5,363.5C 278.065,363.317 271.732,362.651 265.5,361.5C 265.5,341.5 265.5,321.5 265.5,301.5C 266.497,318.659 266.83,335.992 266.5,353.5C 267.5,353.5 268.5,353.5 269.5,353.5C 269.17,335.326 269.503,317.326 270.5,299.5 Z"/></g>
<g><path style="opacity:1" fill="#c88b8e" d="M 270.5,298.5 C 270.833,298.5 271.167,298.5 271.5,298.5C 271.5,319.5 271.5,340.5 271.5,361.5C 280.833,361.5 290.167,361.5 299.5,361.5C 299.5,361.833 299.5,362.167 299.5,362.5C 289.833,362.5 280.167,362.5 270.5,362.5C 270.5,341.5 270.5,320.5 270.5,299.5C 270.5,299.167 270.5,298.833 270.5,298.5 Z"/></g>
<g><path style="opacity:1" fill="#9b4145" d="M 185.5,367.5 C 185.5,372.833 185.5,378.167 185.5,383.5C 228.33,384.499 271.33,384.832 314.5,384.5C 314.5,378.833 314.5,373.167 314.5,367.5C 315.814,369.915 316.481,372.748 316.5,376C 318.202,386.97 313.869,390.637 303.5,387C 263.488,386.214 223.488,386.381 183.5,387.5C 184.005,380.676 184.671,374.009 185.5,367.5 Z"/></g>
<g><path style="opacity:1" fill="#dda9a9" d="M 313.5,367.5 C 313.833,367.5 314.167,367.5 314.5,367.5C 314.5,373.167 314.5,378.833 314.5,384.5C 271.33,384.832 228.33,384.499 185.5,383.5C 228.167,383.5 270.833,383.5 313.5,383.5C 313.5,378.167 313.5,372.833 313.5,367.5 Z"/></g>
<g><path style="opacity:1" fill="#fefbfa" d="M 185.5,367.5 C 228.167,367.5 270.833,367.5 313.5,367.5C 313.5,372.833 313.5,378.167 313.5,383.5C 270.833,383.5 228.167,383.5 185.5,383.5C 185.5,378.167 185.5,372.833 185.5,367.5 Z"/></g>
<g><path style="opacity:0.749" fill="#a56e6f" d="M 308.5,489.5 C 303.731,491.075 298.731,492.075 293.5,492.5C 293.611,491.883 293.944,491.383 294.5,491C 299.102,489.878 303.768,489.378 308.5,489.5 Z"/></g>
<g><path style="opacity:1" fill="#a2484a" d="M 167.5,481.5 C 171.49,481.999 175.49,482.499 179.5,483C 179.167,483.333 178.833,483.667 178.5,484C 180.246,484.471 181.913,485.138 183.5,486C 190.686,486.959 197.686,488.625 204.5,491C 208.167,491.667 211.833,491.667 215.5,491C 218.194,489.512 220.528,489.679 222.5,491.5C 225.039,490.885 227.539,490.218 230,489.5C 230.5,490 231,490.5 231.5,491C 244.489,492.724 257.489,492.724 270.5,491C 270.957,490.586 271.291,490.086 271.5,489.5C 275.815,488.585 280.148,487.752 284.5,487C 285,486.5 285.5,486 286,485.5C 296.445,490.037 306.612,489.37 316.5,483.5C 317.086,483.709 317.586,484.043 318,484.5C 322.852,483.704 327.685,482.704 332.5,481.5C 324.992,485.383 316.992,488.05 308.5,489.5C 303.768,489.378 299.102,489.878 294.5,491C 293.944,491.383 293.611,491.883 293.5,492.5C 279.101,493.953 264.601,494.619 250,494.5C 235.479,494.072 220.979,493.405 206.5,492.5C 192.787,490.966 179.787,487.299 167.5,481.5 Z"/></g>
<g><path style="opacity:0.999" fill="#a66869" d="M 206.5,492.5 C 220.979,493.405 235.479,494.072 250,494.5C 264.601,494.619 279.101,493.953 293.5,492.5C 279.344,495.886 264.844,497.22 250,496.5C 235.156,497.22 220.656,495.886 206.5,492.5 Z"/></g>
</svg>
